<?xml version="1.0" encoding="UTF-8" standalone="no"?>
<!-- Created with Inkscape (http://www.inkscape.org/) -->

<svg
   width="48"
   height="48"
   viewBox="0 0 12.7 12.7"
   version="1.1"
   id="svg1"
   xml:space="preserve"
   xmlns="http://www.w3.org/2000/svg"
   xmlns:svg="http://www.w3.org/2000/svg"><defs
     id="defs1" /><rect
     style="display:none;fill:#ffffff;fill-opacity:1;stroke-width:0.24071"
     id="rect2"
     width="11.554082"
     height="11.554082"
     x="0.47856724"
     y="0.5798434"
     rx="1.236927" /><g
     id="layer1"
     transform="translate(0.3571096,0.04201289)"><path
       style="font-weight:bold;font-size:13.8465px;font-family:Buenard;-inkscape-font-specification:'Buenard Bold';white-space:pre;inline-size:10.3275;fill:#ffffff;stroke-width:1.38192"
       d="m 2.4277933,10.590641 q 0,0.29848 0.4145607,0.447729 l 0.9286149,0.298474 -0.099494,0.646723 q -1.0778573,-0.149246 -1.8240662,-0.149246 -0.7462094,0 -1.89039671,0.149246 l -0.1326596,-0.646723 Q 0.57056142,11.187605 0.76955062,10.988612 0.96853912,10.789627 1.2504407,9.9936776 L 4.5005963,1.1386586 Q 5.2799701,0.98941665 5.9764321,0.64118553 L 9.5914037,9.9936776 q 0.298482,0.7793674 0.4974743,0.9949344 0.19898,0.198993 0.845701,0.348232 l -0.116089,0.646723 q -1.1441773,-0.149246 -2.2386216,-0.149246 -1.0778575,0 -2.321539,0.149246 l -0.099495,-0.646723 q 0.5472198,-0.165822 0.9286158,-0.315054 0.3979782,-0.149245 0.3979782,-0.431149 0,-0.11608 -0.049746,-0.23215 L 6.5899811,8.0535291 H 3.2403319 l -0.779374,2.3049619 q -0.033164,0.08287 -0.033165,0.23215 z M 4.716168,3.791846 3.6051456,6.9922543 H 6.2085855 L 5.0975629,3.9079234 4.9151565,3.2114614 4.7990793,3.1617149 Z"
       id="text1"
       aria-label="A" /><path
       d="m 10.354733,6.0604118 q 0,0.4906148 0.142008,0.6584572 0.142023,0.1678413 0.516439,0.1678413 0.387326,0 0.994139,-0.3873287 l 0.258209,0.4260615 q -1.136162,0.942497 -1.872085,0.942497 -0.7359129,0 -1.1619725,-0.3485947 Q 8.8054207,7.1578393 8.8054207,6.2540754 V 2.8714149 H 8.1598754 L 8.056588,2.3937112 8.8054216,2.1613143 V 1.5286796 L 10.354733,0.81857893 V 2.2387797 L 11.87822,2.1225795 11.736219,2.9617902 10.35476,2.9101492 Z"
       id="text2"
       style="font-weight:bold;font-size:9.9908px;font-family:Buenard;-inkscape-font-specification:'Buenard Bold';fill:#ffffff;stroke-width:1.07591"
       aria-label="t" /></g></svg>
